<mxfile host="app.diagrams.net" agent="Mozilla/5.0 (Windows NT 10.0; Win64; x64) AppleWebKit/537.36 (KHTML, like Gecko) Chrome/128.0.0.0 Safari/537.36 OPR/114.0.0.0" version="24.9.0">
  <diagram name="Page-1" id="TwGA8AsThT5nMNsOZiRa">
    <mxGraphModel grid="1" page="1" gridSize="10" guides="1" tooltips="1" connect="1" arrows="1" fold="1" pageScale="1" pageWidth="850" pageHeight="1100" math="0" shadow="0">
      <root>
        <mxCell id="0" />
        <mxCell id="1" parent="0" />
        <mxCell id="2mG4Iq90BZgs9CTGqONs-18" value="" style="shape=cylinder3;whiteSpace=wrap;html=1;boundedLbl=1;backgroundOutline=1;size=15;" vertex="1" parent="1">
          <mxGeometry x="720" y="890" width="60" height="80" as="geometry" />
        </mxCell>
        <mxCell id="2mG4Iq90BZgs9CTGqONs-16" value="" style="shape=cylinder3;whiteSpace=wrap;html=1;boundedLbl=1;backgroundOutline=1;size=15;" vertex="1" parent="1">
          <mxGeometry x="690" y="890" width="60" height="80" as="geometry" />
        </mxCell>
        <mxCell id="2mG4Iq90BZgs9CTGqONs-15" value="" style="shape=cylinder3;whiteSpace=wrap;html=1;boundedLbl=1;backgroundOutline=1;size=15;" vertex="1" parent="1">
          <mxGeometry x="720" y="700" width="60" height="80" as="geometry" />
        </mxCell>
        <mxCell id="2mG4Iq90BZgs9CTGqONs-14" value="" style="shape=cylinder3;whiteSpace=wrap;html=1;boundedLbl=1;backgroundOutline=1;size=15;" vertex="1" parent="1">
          <mxGeometry x="690" y="700" width="60" height="80" as="geometry" />
        </mxCell>
        <mxCell id="2mG4Iq90BZgs9CTGqONs-1" value="MongoDB" style="shape=cylinder3;whiteSpace=wrap;html=1;boundedLbl=1;backgroundOutline=1;size=15;" vertex="1" parent="1">
          <mxGeometry x="495" y="1020" width="60" height="80" as="geometry" />
        </mxCell>
        <mxCell id="2mG4Iq90BZgs9CTGqONs-2" value="pymongo-api" style="rounded=1;whiteSpace=wrap;html=1;" vertex="1" parent="1">
          <mxGeometry x="295" y="1030" width="120" height="60" as="geometry" />
        </mxCell>
        <mxCell id="2mG4Iq90BZgs9CTGqONs-3" style="edgeStyle=orthogonalEdgeStyle;rounded=0;orthogonalLoop=1;jettySize=auto;html=1;exitX=1;exitY=0.5;exitDx=0;exitDy=0;entryX=0;entryY=0.5;entryDx=0;entryDy=0;entryPerimeter=0;" edge="1" parent="1" source="2mG4Iq90BZgs9CTGqONs-2" target="2mG4Iq90BZgs9CTGqONs-1">
          <mxGeometry relative="1" as="geometry" />
        </mxCell>
        <mxCell id="2mG4Iq90BZgs9CTGqONs-4" value="MongoDB&lt;div&gt;2-shard&lt;/div&gt;" style="shape=cylinder3;whiteSpace=wrap;html=1;boundedLbl=1;backgroundOutline=1;size=15;" vertex="1" parent="1">
          <mxGeometry x="655" y="890" width="60" height="80" as="geometry" />
        </mxCell>
        <mxCell id="2mG4Iq90BZgs9CTGqONs-5" value="pymongo-api" style="rounded=1;whiteSpace=wrap;html=1;" vertex="1" parent="1">
          <mxGeometry x="190" y="790" width="120" height="60" as="geometry" />
        </mxCell>
        <mxCell id="2mG4Iq90BZgs9CTGqONs-6" style="edgeStyle=orthogonalEdgeStyle;rounded=0;orthogonalLoop=1;jettySize=auto;html=1;exitX=1;exitY=0.5;exitDx=0;exitDy=0;entryX=0;entryY=0.5;entryDx=0;entryDy=0;" edge="1" parent="1" source="2mG4Iq90BZgs9CTGqONs-5" target="2mG4Iq90BZgs9CTGqONs-8">
          <mxGeometry relative="1" as="geometry">
            <Array as="points" />
          </mxGeometry>
        </mxCell>
        <mxCell id="2mG4Iq90BZgs9CTGqONs-7" value="MongoDB&lt;div&gt;1-shard&lt;/div&gt;" style="shape=cylinder3;whiteSpace=wrap;html=1;boundedLbl=1;backgroundOutline=1;size=15;" vertex="1" parent="1">
          <mxGeometry x="655" y="700" width="60" height="80" as="geometry" />
        </mxCell>
        <mxCell id="2mG4Iq90BZgs9CTGqONs-13" value="" style="edgeStyle=orthogonalEdgeStyle;rounded=0;orthogonalLoop=1;jettySize=auto;html=1;" edge="1" parent="1" source="2mG4Iq90BZgs9CTGqONs-8" target="2mG4Iq90BZgs9CTGqONs-12">
          <mxGeometry relative="1" as="geometry" />
        </mxCell>
        <mxCell id="2mG4Iq90BZgs9CTGqONs-8" value="MongoRouter" style="whiteSpace=wrap;html=1;aspect=fixed;" vertex="1" parent="1">
          <mxGeometry x="395" y="780" width="80" height="80" as="geometry" />
        </mxCell>
        <mxCell id="2mG4Iq90BZgs9CTGqONs-9" style="edgeStyle=orthogonalEdgeStyle;rounded=0;orthogonalLoop=1;jettySize=auto;html=1;entryX=0;entryY=0.5;entryDx=0;entryDy=0;entryPerimeter=0;" edge="1" parent="1" source="2mG4Iq90BZgs9CTGqONs-8" target="2mG4Iq90BZgs9CTGqONs-4">
          <mxGeometry relative="1" as="geometry" />
        </mxCell>
        <mxCell id="2mG4Iq90BZgs9CTGqONs-10" style="edgeStyle=orthogonalEdgeStyle;rounded=0;orthogonalLoop=1;jettySize=auto;html=1;entryX=-0.002;entryY=0.559;entryDx=0;entryDy=0;entryPerimeter=0;" edge="1" parent="1" source="2mG4Iq90BZgs9CTGqONs-8" target="2mG4Iq90BZgs9CTGqONs-7">
          <mxGeometry relative="1" as="geometry" />
        </mxCell>
        <mxCell id="2mG4Iq90BZgs9CTGqONs-12" value="MongoConfig" style="whiteSpace=wrap;html=1;aspect=fixed;" vertex="1" parent="1">
          <mxGeometry x="395" y="880" width="80" height="80" as="geometry" />
        </mxCell>
        <mxCell id="2mG4Iq90BZgs9CTGqONs-19" value="&lt;font style=&quot;font-size: 8px;&quot;&gt;master&lt;/font&gt;" style="text;html=1;align=center;verticalAlign=middle;whiteSpace=wrap;rounded=0;" vertex="1" parent="1">
          <mxGeometry x="655" y="890" width="60" height="30" as="geometry" />
        </mxCell>
        <mxCell id="2mG4Iq90BZgs9CTGqONs-21" value="&lt;font style=&quot;font-size: 8px;&quot;&gt;slave-1&lt;/font&gt;" style="text;html=1;align=center;verticalAlign=middle;whiteSpace=wrap;rounded=0;" vertex="1" parent="1">
          <mxGeometry x="700" y="890" width="60" height="30" as="geometry" />
        </mxCell>
        <mxCell id="2mG4Iq90BZgs9CTGqONs-22" value="&lt;font style=&quot;font-size: 8px;&quot;&gt;slave-2&lt;/font&gt;" style="text;html=1;align=center;verticalAlign=middle;whiteSpace=wrap;rounded=0;" vertex="1" parent="1">
          <mxGeometry x="735" y="890" width="60" height="30" as="geometry" />
        </mxCell>
        <mxCell id="2mG4Iq90BZgs9CTGqONs-23" value="&lt;font style=&quot;font-size: 8px;&quot;&gt;master&lt;/font&gt;" style="text;html=1;align=center;verticalAlign=middle;whiteSpace=wrap;rounded=0;" vertex="1" parent="1">
          <mxGeometry x="655" y="700" width="60" height="30" as="geometry" />
        </mxCell>
        <mxCell id="2mG4Iq90BZgs9CTGqONs-24" value="&lt;font style=&quot;font-size: 8px;&quot;&gt;slave-1&lt;/font&gt;" style="text;html=1;align=center;verticalAlign=middle;whiteSpace=wrap;rounded=0;" vertex="1" parent="1">
          <mxGeometry x="700" y="700" width="60" height="30" as="geometry" />
        </mxCell>
        <mxCell id="2mG4Iq90BZgs9CTGqONs-26" value="&lt;font style=&quot;font-size: 8px;&quot;&gt;slave-2&lt;/font&gt;" style="text;html=1;align=center;verticalAlign=middle;whiteSpace=wrap;rounded=0;" vertex="1" parent="1">
          <mxGeometry x="735" y="700" width="60" height="30" as="geometry" />
        </mxCell>
        <mxCell id="2mG4Iq90BZgs9CTGqONs-27" value="" style="shape=cylinder3;whiteSpace=wrap;html=1;boundedLbl=1;backgroundOutline=1;size=15;" vertex="1" parent="1">
          <mxGeometry x="720" y="550" width="60" height="80" as="geometry" />
        </mxCell>
        <mxCell id="2mG4Iq90BZgs9CTGqONs-28" value="" style="shape=cylinder3;whiteSpace=wrap;html=1;boundedLbl=1;backgroundOutline=1;size=15;" vertex="1" parent="1">
          <mxGeometry x="690" y="550" width="60" height="80" as="geometry" />
        </mxCell>
        <mxCell id="2mG4Iq90BZgs9CTGqONs-29" value="" style="shape=cylinder3;whiteSpace=wrap;html=1;boundedLbl=1;backgroundOutline=1;size=15;" vertex="1" parent="1">
          <mxGeometry x="720" y="360" width="60" height="80" as="geometry" />
        </mxCell>
        <mxCell id="2mG4Iq90BZgs9CTGqONs-30" value="" style="shape=cylinder3;whiteSpace=wrap;html=1;boundedLbl=1;backgroundOutline=1;size=15;" vertex="1" parent="1">
          <mxGeometry x="690" y="360" width="60" height="80" as="geometry" />
        </mxCell>
        <mxCell id="2mG4Iq90BZgs9CTGqONs-31" value="MongoDB&lt;div&gt;2-shard&lt;/div&gt;" style="shape=cylinder3;whiteSpace=wrap;html=1;boundedLbl=1;backgroundOutline=1;size=15;" vertex="1" parent="1">
          <mxGeometry x="655" y="550" width="60" height="80" as="geometry" />
        </mxCell>
        <mxCell id="2mG4Iq90BZgs9CTGqONs-32" value="pymongo-api" style="rounded=1;whiteSpace=wrap;html=1;" vertex="1" parent="1">
          <mxGeometry x="190" y="450" width="120" height="60" as="geometry" />
        </mxCell>
        <mxCell id="2mG4Iq90BZgs9CTGqONs-33" style="edgeStyle=orthogonalEdgeStyle;rounded=0;orthogonalLoop=1;jettySize=auto;html=1;exitX=1;exitY=0.5;exitDx=0;exitDy=0;entryX=0;entryY=0.5;entryDx=0;entryDy=0;" edge="1" parent="1" source="2mG4Iq90BZgs9CTGqONs-32" target="2mG4Iq90BZgs9CTGqONs-36">
          <mxGeometry relative="1" as="geometry">
            <Array as="points" />
          </mxGeometry>
        </mxCell>
        <mxCell id="2mG4Iq90BZgs9CTGqONs-34" value="MongoDB&lt;div&gt;1-shard&lt;/div&gt;" style="shape=cylinder3;whiteSpace=wrap;html=1;boundedLbl=1;backgroundOutline=1;size=15;" vertex="1" parent="1">
          <mxGeometry x="655" y="360" width="60" height="80" as="geometry" />
        </mxCell>
        <mxCell id="2mG4Iq90BZgs9CTGqONs-35" value="" style="edgeStyle=orthogonalEdgeStyle;rounded=0;orthogonalLoop=1;jettySize=auto;html=1;" edge="1" parent="1" source="2mG4Iq90BZgs9CTGqONs-36" target="2mG4Iq90BZgs9CTGqONs-39">
          <mxGeometry relative="1" as="geometry" />
        </mxCell>
        <mxCell id="2mG4Iq90BZgs9CTGqONs-36" value="MongoRouter" style="whiteSpace=wrap;html=1;aspect=fixed;" vertex="1" parent="1">
          <mxGeometry x="395" y="440" width="80" height="80" as="geometry" />
        </mxCell>
        <mxCell id="2mG4Iq90BZgs9CTGqONs-37" style="edgeStyle=orthogonalEdgeStyle;rounded=0;orthogonalLoop=1;jettySize=auto;html=1;entryX=0;entryY=0.5;entryDx=0;entryDy=0;entryPerimeter=0;" edge="1" parent="1" source="2mG4Iq90BZgs9CTGqONs-36" target="2mG4Iq90BZgs9CTGqONs-31">
          <mxGeometry relative="1" as="geometry" />
        </mxCell>
        <mxCell id="2mG4Iq90BZgs9CTGqONs-38" style="edgeStyle=orthogonalEdgeStyle;rounded=0;orthogonalLoop=1;jettySize=auto;html=1;entryX=-0.002;entryY=0.559;entryDx=0;entryDy=0;entryPerimeter=0;" edge="1" parent="1" source="2mG4Iq90BZgs9CTGqONs-36" target="2mG4Iq90BZgs9CTGqONs-34">
          <mxGeometry relative="1" as="geometry" />
        </mxCell>
        <mxCell id="2mG4Iq90BZgs9CTGqONs-39" value="MongoConfig" style="whiteSpace=wrap;html=1;aspect=fixed;" vertex="1" parent="1">
          <mxGeometry x="395" y="540" width="80" height="80" as="geometry" />
        </mxCell>
        <mxCell id="2mG4Iq90BZgs9CTGqONs-40" value="&lt;font style=&quot;font-size: 8px;&quot;&gt;master&lt;/font&gt;" style="text;html=1;align=center;verticalAlign=middle;whiteSpace=wrap;rounded=0;" vertex="1" parent="1">
          <mxGeometry x="655" y="550" width="60" height="30" as="geometry" />
        </mxCell>
        <mxCell id="2mG4Iq90BZgs9CTGqONs-41" value="&lt;font style=&quot;font-size: 8px;&quot;&gt;slave-1&lt;/font&gt;" style="text;html=1;align=center;verticalAlign=middle;whiteSpace=wrap;rounded=0;" vertex="1" parent="1">
          <mxGeometry x="700" y="550" width="60" height="30" as="geometry" />
        </mxCell>
        <mxCell id="2mG4Iq90BZgs9CTGqONs-42" value="&lt;font style=&quot;font-size: 8px;&quot;&gt;slave-2&lt;/font&gt;" style="text;html=1;align=center;verticalAlign=middle;whiteSpace=wrap;rounded=0;" vertex="1" parent="1">
          <mxGeometry x="735" y="550" width="60" height="30" as="geometry" />
        </mxCell>
        <mxCell id="2mG4Iq90BZgs9CTGqONs-43" value="&lt;font style=&quot;font-size: 8px;&quot;&gt;master&lt;/font&gt;" style="text;html=1;align=center;verticalAlign=middle;whiteSpace=wrap;rounded=0;" vertex="1" parent="1">
          <mxGeometry x="655" y="360" width="60" height="30" as="geometry" />
        </mxCell>
        <mxCell id="2mG4Iq90BZgs9CTGqONs-44" value="&lt;font style=&quot;font-size: 8px;&quot;&gt;slave-1&lt;/font&gt;" style="text;html=1;align=center;verticalAlign=middle;whiteSpace=wrap;rounded=0;" vertex="1" parent="1">
          <mxGeometry x="700" y="360" width="60" height="30" as="geometry" />
        </mxCell>
        <mxCell id="2mG4Iq90BZgs9CTGqONs-45" value="&lt;font style=&quot;font-size: 8px;&quot;&gt;slave-2&lt;/font&gt;" style="text;html=1;align=center;verticalAlign=middle;whiteSpace=wrap;rounded=0;" vertex="1" parent="1">
          <mxGeometry x="735" y="360" width="60" height="30" as="geometry" />
        </mxCell>
        <mxCell id="2mG4Iq90BZgs9CTGqONs-47" value="Redis" style="shape=hexagon;perimeter=hexagonPerimeter2;whiteSpace=wrap;html=1;fixedSize=1;" vertex="1" parent="1">
          <mxGeometry x="205" y="540" width="90" height="60" as="geometry" />
        </mxCell>
        <mxCell id="2mG4Iq90BZgs9CTGqONs-48" style="edgeStyle=orthogonalEdgeStyle;rounded=0;orthogonalLoop=1;jettySize=auto;html=1;" edge="1" parent="1" source="2mG4Iq90BZgs9CTGqONs-32">
          <mxGeometry relative="1" as="geometry">
            <mxPoint x="250" y="540" as="targetPoint" />
          </mxGeometry>
        </mxCell>
        <mxCell id="PmHkBjyKiqt3a2_9l8QH-1" value="" style="shape=cylinder3;whiteSpace=wrap;html=1;boundedLbl=1;backgroundOutline=1;size=15;" vertex="1" parent="1">
          <mxGeometry x="530" y="-560" width="60" height="80" as="geometry" />
        </mxCell>
        <mxCell id="PmHkBjyKiqt3a2_9l8QH-2" value="" style="shape=cylinder3;whiteSpace=wrap;html=1;boundedLbl=1;backgroundOutline=1;size=15;" vertex="1" parent="1">
          <mxGeometry x="500" y="-560" width="60" height="80" as="geometry" />
        </mxCell>
        <mxCell id="PmHkBjyKiqt3a2_9l8QH-3" value="" style="shape=cylinder3;whiteSpace=wrap;html=1;boundedLbl=1;backgroundOutline=1;size=15;" vertex="1" parent="1">
          <mxGeometry x="530" y="-750" width="60" height="80" as="geometry" />
        </mxCell>
        <mxCell id="PmHkBjyKiqt3a2_9l8QH-4" value="" style="shape=cylinder3;whiteSpace=wrap;html=1;boundedLbl=1;backgroundOutline=1;size=15;" vertex="1" parent="1">
          <mxGeometry x="500" y="-750" width="60" height="80" as="geometry" />
        </mxCell>
        <mxCell id="PmHkBjyKiqt3a2_9l8QH-5" value="MongoDB&lt;div&gt;2-shard&lt;/div&gt;" style="shape=cylinder3;whiteSpace=wrap;html=1;boundedLbl=1;backgroundOutline=1;size=15;" vertex="1" parent="1">
          <mxGeometry x="465" y="-560" width="60" height="80" as="geometry" />
        </mxCell>
        <mxCell id="PmHkBjyKiqt3a2_9l8QH-38" style="edgeStyle=orthogonalEdgeStyle;rounded=0;orthogonalLoop=1;jettySize=auto;html=1;entryX=0;entryY=0.667;entryDx=0;entryDy=0;entryPerimeter=0;" edge="1" parent="1" target="PmHkBjyKiqt3a2_9l8QH-27">
          <mxGeometry relative="1" as="geometry">
            <mxPoint x="-350" y="-440" as="targetPoint" />
            <mxPoint x="60" y="-650.01" as="sourcePoint" />
          </mxGeometry>
        </mxCell>
        <mxCell id="PmHkBjyKiqt3a2_9l8QH-6" value="pymongo-api" style="rounded=1;whiteSpace=wrap;html=1;" vertex="1" parent="1">
          <mxGeometry y="-660" width="120" height="60" as="geometry" />
        </mxCell>
        <mxCell id="PmHkBjyKiqt3a2_9l8QH-7" style="edgeStyle=orthogonalEdgeStyle;rounded=0;orthogonalLoop=1;jettySize=auto;html=1;exitX=1;exitY=0.5;exitDx=0;exitDy=0;entryX=0;entryY=0.5;entryDx=0;entryDy=0;" edge="1" parent="1" source="PmHkBjyKiqt3a2_9l8QH-6" target="PmHkBjyKiqt3a2_9l8QH-10">
          <mxGeometry relative="1" as="geometry">
            <Array as="points" />
          </mxGeometry>
        </mxCell>
        <mxCell id="PmHkBjyKiqt3a2_9l8QH-8" value="MongoDB&lt;div&gt;1-shard&lt;/div&gt;" style="shape=cylinder3;whiteSpace=wrap;html=1;boundedLbl=1;backgroundOutline=1;size=15;" vertex="1" parent="1">
          <mxGeometry x="465" y="-750" width="60" height="80" as="geometry" />
        </mxCell>
        <mxCell id="PmHkBjyKiqt3a2_9l8QH-9" value="" style="edgeStyle=orthogonalEdgeStyle;rounded=0;orthogonalLoop=1;jettySize=auto;html=1;" edge="1" parent="1" source="PmHkBjyKiqt3a2_9l8QH-10" target="PmHkBjyKiqt3a2_9l8QH-13">
          <mxGeometry relative="1" as="geometry" />
        </mxCell>
        <mxCell id="PmHkBjyKiqt3a2_9l8QH-10" value="MongoRouter" style="whiteSpace=wrap;html=1;aspect=fixed;" vertex="1" parent="1">
          <mxGeometry x="205" y="-670" width="80" height="80" as="geometry" />
        </mxCell>
        <mxCell id="PmHkBjyKiqt3a2_9l8QH-11" style="edgeStyle=orthogonalEdgeStyle;rounded=0;orthogonalLoop=1;jettySize=auto;html=1;entryX=0;entryY=0.5;entryDx=0;entryDy=0;entryPerimeter=0;" edge="1" parent="1" source="PmHkBjyKiqt3a2_9l8QH-10" target="PmHkBjyKiqt3a2_9l8QH-5">
          <mxGeometry relative="1" as="geometry" />
        </mxCell>
        <mxCell id="PmHkBjyKiqt3a2_9l8QH-12" style="edgeStyle=orthogonalEdgeStyle;rounded=0;orthogonalLoop=1;jettySize=auto;html=1;entryX=-0.002;entryY=0.559;entryDx=0;entryDy=0;entryPerimeter=0;" edge="1" parent="1" source="PmHkBjyKiqt3a2_9l8QH-10" target="PmHkBjyKiqt3a2_9l8QH-8">
          <mxGeometry relative="1" as="geometry" />
        </mxCell>
        <mxCell id="PmHkBjyKiqt3a2_9l8QH-13" value="MongoConfig" style="whiteSpace=wrap;html=1;aspect=fixed;" vertex="1" parent="1">
          <mxGeometry x="205" y="-570" width="80" height="80" as="geometry" />
        </mxCell>
        <mxCell id="PmHkBjyKiqt3a2_9l8QH-14" value="&lt;font style=&quot;font-size: 8px;&quot;&gt;master&lt;/font&gt;" style="text;html=1;align=center;verticalAlign=middle;whiteSpace=wrap;rounded=0;" vertex="1" parent="1">
          <mxGeometry x="465" y="-560" width="60" height="30" as="geometry" />
        </mxCell>
        <mxCell id="PmHkBjyKiqt3a2_9l8QH-15" value="&lt;font style=&quot;font-size: 8px;&quot;&gt;slave-1&lt;/font&gt;" style="text;html=1;align=center;verticalAlign=middle;whiteSpace=wrap;rounded=0;" vertex="1" parent="1">
          <mxGeometry x="510" y="-560" width="60" height="30" as="geometry" />
        </mxCell>
        <mxCell id="PmHkBjyKiqt3a2_9l8QH-16" value="&lt;font style=&quot;font-size: 8px;&quot;&gt;slave-2&lt;/font&gt;" style="text;html=1;align=center;verticalAlign=middle;whiteSpace=wrap;rounded=0;" vertex="1" parent="1">
          <mxGeometry x="545" y="-560" width="60" height="30" as="geometry" />
        </mxCell>
        <mxCell id="PmHkBjyKiqt3a2_9l8QH-17" value="&lt;font style=&quot;font-size: 8px;&quot;&gt;master&lt;/font&gt;" style="text;html=1;align=center;verticalAlign=middle;whiteSpace=wrap;rounded=0;" vertex="1" parent="1">
          <mxGeometry x="465" y="-750" width="60" height="30" as="geometry" />
        </mxCell>
        <mxCell id="PmHkBjyKiqt3a2_9l8QH-18" value="&lt;font style=&quot;font-size: 8px;&quot;&gt;slave-1&lt;/font&gt;" style="text;html=1;align=center;verticalAlign=middle;whiteSpace=wrap;rounded=0;" vertex="1" parent="1">
          <mxGeometry x="510" y="-750" width="60" height="30" as="geometry" />
        </mxCell>
        <mxCell id="PmHkBjyKiqt3a2_9l8QH-19" value="&lt;font style=&quot;font-size: 8px;&quot;&gt;slave-2&lt;/font&gt;" style="text;html=1;align=center;verticalAlign=middle;whiteSpace=wrap;rounded=0;" vertex="1" parent="1">
          <mxGeometry x="545" y="-750" width="60" height="30" as="geometry" />
        </mxCell>
        <mxCell id="PmHkBjyKiqt3a2_9l8QH-20" value="Redis" style="shape=hexagon;perimeter=hexagonPerimeter2;whiteSpace=wrap;html=1;fixedSize=1;" vertex="1" parent="1">
          <mxGeometry x="15" y="-570" width="90" height="60" as="geometry" />
        </mxCell>
        <mxCell id="PmHkBjyKiqt3a2_9l8QH-21" style="edgeStyle=orthogonalEdgeStyle;rounded=0;orthogonalLoop=1;jettySize=auto;html=1;" edge="1" parent="1" source="PmHkBjyKiqt3a2_9l8QH-6">
          <mxGeometry relative="1" as="geometry">
            <mxPoint x="60" y="-570" as="targetPoint" />
          </mxGeometry>
        </mxCell>
        <mxCell id="PmHkBjyKiqt3a2_9l8QH-23" style="edgeStyle=orthogonalEdgeStyle;rounded=0;orthogonalLoop=1;jettySize=auto;html=1;entryX=0.5;entryY=1;entryDx=0;entryDy=0;" edge="1" parent="1" source="PmHkBjyKiqt3a2_9l8QH-22" target="PmHkBjyKiqt3a2_9l8QH-20">
          <mxGeometry relative="1" as="geometry" />
        </mxCell>
        <mxCell id="PmHkBjyKiqt3a2_9l8QH-37" style="edgeStyle=orthogonalEdgeStyle;rounded=0;orthogonalLoop=1;jettySize=auto;html=1;entryX=0.463;entryY=1.015;entryDx=0;entryDy=0;entryPerimeter=0;" edge="1" parent="1" source="PmHkBjyKiqt3a2_9l8QH-22" target="PmHkBjyKiqt3a2_9l8QH-27">
          <mxGeometry relative="1" as="geometry">
            <mxPoint x="-260" y="-400" as="targetPoint" />
            <Array as="points">
              <mxPoint x="60" y="-400" />
              <mxPoint x="-244" y="-400" />
            </Array>
          </mxGeometry>
        </mxCell>
        <mxCell id="PmHkBjyKiqt3a2_9l8QH-22" value="pymongo-api" style="rounded=1;whiteSpace=wrap;html=1;" vertex="1" parent="1">
          <mxGeometry y="-480" width="120" height="60" as="geometry" />
        </mxCell>
        <mxCell id="PmHkBjyKiqt3a2_9l8QH-25" style="edgeStyle=orthogonalEdgeStyle;rounded=0;orthogonalLoop=1;jettySize=auto;html=1;entryX=0.004;entryY=0.613;entryDx=0;entryDy=0;entryPerimeter=0;" edge="1" parent="1" source="PmHkBjyKiqt3a2_9l8QH-22" target="PmHkBjyKiqt3a2_9l8QH-10">
          <mxGeometry relative="1" as="geometry" />
        </mxCell>
        <mxCell id="PmHkBjyKiqt3a2_9l8QH-35" style="edgeStyle=orthogonalEdgeStyle;rounded=0;orthogonalLoop=1;jettySize=auto;html=1;entryX=0;entryY=0.5;entryDx=0;entryDy=0;" edge="1" parent="1" source="PmHkBjyKiqt3a2_9l8QH-26" target="PmHkBjyKiqt3a2_9l8QH-6">
          <mxGeometry relative="1" as="geometry" />
        </mxCell>
        <mxCell id="PmHkBjyKiqt3a2_9l8QH-36" style="edgeStyle=orthogonalEdgeStyle;rounded=0;orthogonalLoop=1;jettySize=auto;html=1;entryX=0;entryY=0.5;entryDx=0;entryDy=0;" edge="1" parent="1" source="PmHkBjyKiqt3a2_9l8QH-26" target="PmHkBjyKiqt3a2_9l8QH-22">
          <mxGeometry relative="1" as="geometry" />
        </mxCell>
        <mxCell id="PmHkBjyKiqt3a2_9l8QH-26" value="API Gateway" style="rounded=1;whiteSpace=wrap;html=1;" vertex="1" parent="1">
          <mxGeometry x="-300" y="-630" width="120" height="60" as="geometry" />
        </mxCell>
        <mxCell id="PmHkBjyKiqt3a2_9l8QH-27" value="Consul" style="rounded=1;whiteSpace=wrap;html=1;" vertex="1" parent="1">
          <mxGeometry x="-300" y="-480" width="120" height="60" as="geometry" />
        </mxCell>
        <mxCell id="PmHkBjyKiqt3a2_9l8QH-28" value="consul_kv" style="rounded=1;whiteSpace=wrap;html=1;" vertex="1" parent="1">
          <mxGeometry x="-275" y="-580" width="70" height="20" as="geometry" />
        </mxCell>
        <mxCell id="PmHkBjyKiqt3a2_9l8QH-30" style="edgeStyle=orthogonalEdgeStyle;rounded=0;orthogonalLoop=1;jettySize=auto;html=1;entryX=0.502;entryY=-0.043;entryDx=0;entryDy=0;entryPerimeter=0;" edge="1" parent="1" source="PmHkBjyKiqt3a2_9l8QH-28" target="PmHkBjyKiqt3a2_9l8QH-27">
          <mxGeometry relative="1" as="geometry" />
        </mxCell>
        <mxCell id="PmHkBjyKiqt3a2_9l8QH-46" style="edgeStyle=orthogonalEdgeStyle;rounded=0;orthogonalLoop=1;jettySize=auto;html=1;entryX=0.5;entryY=1;entryDx=0;entryDy=0;" edge="1" parent="1" source="PmHkBjyKiqt3a2_9l8QH-42" target="PmHkBjyKiqt3a2_9l8QH-45">
          <mxGeometry relative="1" as="geometry" />
        </mxCell>
        <mxCell id="PmHkBjyKiqt3a2_9l8QH-42" value="Frontend" style="rounded=1;whiteSpace=wrap;html=1;" vertex="1" parent="1">
          <mxGeometry x="-570" y="-630" width="120" height="60" as="geometry" />
        </mxCell>
        <mxCell id="PmHkBjyKiqt3a2_9l8QH-44" style="edgeStyle=orthogonalEdgeStyle;rounded=0;orthogonalLoop=1;jettySize=auto;html=1;entryX=-0.006;entryY=0.507;entryDx=0;entryDy=0;entryPerimeter=0;" edge="1" parent="1" source="PmHkBjyKiqt3a2_9l8QH-42" target="PmHkBjyKiqt3a2_9l8QH-26">
          <mxGeometry relative="1" as="geometry" />
        </mxCell>
        <mxCell id="PmHkBjyKiqt3a2_9l8QH-45" value="CDN" style="rounded=1;whiteSpace=wrap;html=1;" vertex="1" parent="1">
          <mxGeometry x="-570" y="-810" width="120" height="60" as="geometry" />
        </mxCell>
      </root>
    </mxGraphModel>
  </diagram>
</mxfile>
